<?xml version="1.0" encoding="UTF-8"?>
<svg width="1757.5pt" height="326.56pt" version="1.2" viewBox="0 0 1757.5 326.56" xmlns="http://www.w3.org/2000/svg">
 <path d="m279.69 0.03906h53.633v254.38c0 71.914-37.148 70.625-99.258 70.625h-134.8c-62.109 0-99.258 1.25-99.258-70.625v-254.38h53.633l-0.2344 215.27c0 29.805 0.2734 39.062 37.266 39.102l151.99 0.156c36.992 0.04 37.031-11.25 37.031-42.969zm837.3 0-84.024 263.59h-42.226l-83.867-263.59h-50.82l103.83 326.29h103.87l104.02-326.29zm-656.52 62.656 177.81 263.63h94.883v-326.05h-62.461v263.36h-16.289l-177.81-263.63-95.977 0.2734v324.38h62.461v-261.95zm1297-62.656h-138.28c-115.2 0-179.8 62.188-179.8 162.89 0 100.7 64.57 163.63 179.8 163.4l138.28 0.234-0.352-72.148h-137.89c-98.828 0-129.02-49.844-129.02-91.484 0-41.641 30.195-91.016 128.71-91.016h138.55zm-986.21 0.2344v326.05h62.461v-326.05zm628.4 326.05h50.781l-104.02-326.29h-103.87l-103.79 326.29h50.781l22.852-71.914h164.34zm-42.891-134.57h-124.41l41.055-129.06h42.226l41.133 129.06" fill-rule="evenodd"/>
</svg>
